<svg width="203" height="31" viewBox="0 0 203 31" fill="none" xmlns="http://www.w3.org/2000/svg">
<ellipse cx="14.5001" cy="17.2446" rx="12.7325" ry="12.4673" fill="#FFDF88"/>
<circle cx="14.4999" cy="18.5709" r="11.141" fill="#FEBE0F"/>
<path fill-rule="evenodd" clip-rule="evenodd" d="M19.0288 14.9441C20.7889 12.2791 22.3906 9.85399 22.3906 7.8906C22.3906 3.53274 18.8578 0 14.5 0C10.1421 0 6.60938 3.53274 6.60938 7.8906C6.60938 9.95745 8.38431 12.7896 10.2505 15.7673C12.3192 19.0681 14.5 22.5478 14.5 25.3626C14.5 21.8013 16.8822 18.1943 19.0288 14.9441ZM14.5 10.9905C16.212 10.9905 17.5999 9.6026 17.5999 7.89059C17.5999 6.17857 16.212 4.79071 14.5 4.79071C12.788 4.79071 11.4001 6.17857 11.4001 7.89059C11.4001 9.6026 12.788 10.9905 14.5 10.9905Z" fill="#D3212D"/>
<path d="M0 14.1553C0.121596 24.1618 3.55541 27.478 14.4936 30.126C15.8935 18.7578 7.91048 20.9645 0 14.1553Z" fill="#0E7139"/>
<path d="M14.5333 29.9721C3.95799 28.1257 0.255541 23.5869 0.254957 14.6322" stroke="url(#paint0_linear_5321_30914)" stroke-width="0.419261"/>
<path d="M1.36279 16.4324C3.76538 22.1562 10.2558 22.0944 14.5001 30.0029" stroke="url(#paint1_linear_5321_30914)" stroke-width="0.419261"/>
<path d="M29 14.1553C28.8784 24.1618 25.4446 27.478 14.5064 30.126C13.1065 18.7578 21.0895 20.9645 29 14.1553Z" fill="#0E7139"/>
<path d="M14.4667 29.9721C25.042 28.1257 28.7445 23.5869 28.745 14.6322" stroke="url(#paint2_linear_5321_30914)" stroke-width="0.419261"/>
<path d="M27.6372 16.4324C25.2346 22.1562 18.7442 22.0944 14.4999 30.0029" stroke="url(#paint3_linear_5321_30914)" stroke-width="0.419261"/>
<path d="M55.813 15.587C55.813 11.156 52.474 8.048 48.274 8.048C44.095 8.048 40.693 11.156 40.693 15.587C40.693 20.018 44.095 23.147 48.274 23.147C52.453 23.147 55.813 20.018 55.813 15.587ZM44.368 15.587C44.368 12.962 45.88 11.303 48.274 11.303C50.626 11.303 52.159 12.962 52.159 15.587C52.159 18.17 50.626 19.871 48.274 19.871C45.88 19.871 44.368 18.17 44.368 15.587ZM61.4018 17.561C61.4018 15.545 62.3888 14.957 64.0898 14.957H65.0768V11.156C63.5018 11.156 62.2208 11.996 61.4018 13.235V11.282H57.8108V23H61.4018V17.561ZM66.0792 17.12C66.0792 20.816 68.3682 23.168 71.2452 23.168C72.9672 23.168 74.2062 22.349 74.8572 21.32V22.979C74.8572 24.953 73.7862 25.667 72.4212 25.667C71.1822 25.667 70.3002 25.1 70.0692 24.218H66.5202C66.8352 27.011 69.1032 28.775 72.5892 28.775C76.6422 28.775 78.4482 26.108 78.4482 22.979V11.282H74.8572V12.941C74.2272 11.891 72.9672 11.114 71.2452 11.114C68.3682 11.114 66.0792 13.424 66.0792 17.12ZM74.8572 17.141C74.8572 19.01 73.6602 20.039 72.2952 20.039C70.9512 20.039 69.7332 18.989 69.7332 17.12C69.7332 15.251 70.9512 14.243 72.2952 14.243C73.6602 14.243 74.8572 15.272 74.8572 17.141ZM80.3321 17.12C80.3321 20.816 82.6211 23.168 85.4771 23.168C87.2201 23.168 88.4591 22.37 89.1101 21.341V23H92.7011V11.282H89.1101V12.941C88.4801 11.912 87.2411 11.114 85.4981 11.114C82.6211 11.114 80.3321 13.424 80.3321 17.12ZM89.1101 17.141C89.1101 19.01 87.9131 20.039 86.5481 20.039C85.2041 20.039 83.9861 18.989 83.9861 17.12C83.9861 15.251 85.2041 14.243 86.5481 14.243C87.9131 14.243 89.1101 15.272 89.1101 17.141ZM103.384 23H106.954V16.154C106.954 13.004 105.148 11.156 102.439 11.156C100.864 11.156 99.6041 11.849 98.8901 12.836V11.282H95.2991V23H98.8901V16.637C98.8901 15.041 99.7721 14.159 101.137 14.159C102.502 14.159 103.384 15.041 103.384 16.637V23ZM109.449 23H113.04V11.282H109.449V23ZM111.255 10.064C112.515 10.064 113.376 9.203 113.376 8.132C113.376 7.04 112.515 6.179 111.255 6.179C109.974 6.179 109.113 7.04 109.113 8.132C109.113 9.203 109.974 10.064 111.255 10.064ZM114.929 17.141C114.929 20.858 117.365 23.168 120.809 23.168C123.749 23.168 125.828 21.467 126.437 18.758H122.615C122.3 19.619 121.733 20.102 120.746 20.102C119.465 20.102 118.583 19.094 118.583 17.141C118.583 15.188 119.465 14.18 120.746 14.18C121.733 14.18 122.321 14.705 122.615 15.524H126.437C125.828 12.731 123.749 11.114 120.809 11.114C117.365 11.114 114.929 13.445 114.929 17.141ZM138.27 8.342V19.976L130.584 8.342H128.673V23H130.584V11.345L138.27 23H140.181V8.342H138.27ZM148.331 12.92C150.305 12.92 151.985 14.159 151.964 16.406H144.698C144.908 14.159 146.462 12.92 148.331 12.92ZM153.707 19.451H151.649C151.229 20.69 150.137 21.572 148.415 21.572C146.462 21.572 144.824 20.291 144.677 17.96H153.875C153.917 17.561 153.938 17.225 153.938 16.805C153.938 13.655 151.754 11.303 148.415 11.303C145.055 11.303 142.724 13.592 142.724 17.225C142.724 20.879 145.139 23.189 148.415 23.189C151.271 23.189 153.119 21.551 153.707 19.451ZM155.747 17.204C155.747 20.774 158.12 23.189 161.186 23.189C163.307 23.189 164.798 22.097 165.491 20.858V23H167.423V11.492H165.491V13.592C164.819 12.395 163.349 11.303 161.207 11.303C158.12 11.303 155.747 13.613 155.747 17.204ZM165.491 17.225C165.491 19.934 163.685 21.509 161.585 21.509C159.485 21.509 157.7 19.913 157.7 17.204C157.7 14.495 159.485 12.962 161.585 12.962C163.685 12.962 165.491 14.558 165.491 17.225ZM172.563 16.742C172.563 14.075 173.949 13.256 175.776 13.256H176.28V11.282C174.453 11.282 173.214 12.08 172.563 13.361V11.492H170.652V23H172.563V16.742ZM180.397 13.634V7.46H178.486V23H180.397V20.879C181.111 22.139 182.602 23.189 184.702 23.189C187.789 23.189 190.162 20.774 190.162 17.204C190.162 13.613 187.81 11.303 184.702 11.303C182.665 11.303 181.132 12.353 180.397 13.634ZM188.209 17.204C188.209 19.913 186.424 21.509 184.303 21.509C182.224 21.509 180.397 19.934 180.397 17.225C180.397 14.558 182.224 12.962 184.303 12.962C186.424 12.962 188.209 14.495 188.209 17.204ZM197.046 20.816L193.434 11.492H191.313L195.954 22.874L193.686 28.418H195.66L202.59 11.492H200.616L197.046 20.816Z" fill="#016530"/>
<defs>
<linearGradient id="paint0_linear_5321_30914" x1="0.254883" y1="13.6321" x2="3.51681" y2="24.3409" gradientUnits="userSpaceOnUse">
<stop stop-color="#1D8640" stop-opacity="0"/>
<stop offset="1" stop-color="#1D8640"/>
</linearGradient>
<linearGradient id="paint1_linear_5321_30914" x1="11.302" y1="26.9257" x2="1.95986" y2="16.3398" gradientUnits="userSpaceOnUse">
<stop stop-color="#1D8640"/>
<stop offset="1" stop-color="#1D8640" stop-opacity="0"/>
</linearGradient>
<linearGradient id="paint2_linear_5321_30914" x1="28.7451" y1="13.6321" x2="25.4832" y2="24.3409" gradientUnits="userSpaceOnUse">
<stop stop-color="#1D8640" stop-opacity="0"/>
<stop offset="1" stop-color="#1D8640"/>
</linearGradient>
<linearGradient id="paint3_linear_5321_30914" x1="17.698" y1="26.9257" x2="27.0401" y2="16.3398" gradientUnits="userSpaceOnUse">
<stop stop-color="#1D8640"/>
<stop offset="1" stop-color="#1D8640" stop-opacity="0"/>
</linearGradient>
</defs>
</svg>
