<svg width="160" height="31" viewBox="0 0 160 31" fill="none" xmlns="http://www.w3.org/2000/svg">
<path d="M15.5545 28.6631C22.1015 28.6631 27.4089 23.4663 27.4089 17.0557C27.4089 10.6451 22.1015 5.44824 15.5545 5.44824C9.00757 5.44824 3.7002 10.6451 3.7002 17.0557C3.7002 23.4663 9.00757 28.6631 15.5545 28.6631Z" fill="#FFDF88"/>
<path d="M15.5549 28.6632C21.2835 28.6632 25.9275 24.0192 25.9275 18.2906C25.9275 12.5619 21.2835 7.91797 15.5549 7.91797C9.82623 7.91797 5.18225 12.5619 5.18225 18.2906C5.18225 24.0192 9.82623 28.6632 15.5549 28.6632Z" fill="#FEBE0F"/>
<path fill-rule="evenodd" clip-rule="evenodd" d="M19.7709 14.9134C21.4096 12.4322 22.9009 10.1744 22.9009 8.3464C22.9009 4.28909 19.6117 1 15.5545 1C11.4971 1 8.20807 4.28909 8.20807 8.3464C8.20807 10.2707 9.86058 12.9075 11.5981 15.6798C13.5241 18.753 15.5545 21.9927 15.5545 24.6134C15.5545 21.2977 17.7724 17.9395 19.7709 14.9134ZM15.5545 11.2325C17.1484 11.2325 18.4406 9.94032 18.4406 8.34639C18.4406 6.75244 17.1484 5.4603 15.5545 5.4603C13.9606 5.4603 12.6684 6.75244 12.6684 8.34639C12.6684 9.94032 13.9606 11.2325 15.5545 11.2325Z" fill="#D3212D"/>
<path d="M2.05457 14.1787C2.16778 23.4951 5.36476 26.5826 15.5486 29.0479C16.8519 18.4638 9.41947 20.5183 2.05457 14.1787Z" fill="#0E7139"/>
<path fill-rule="evenodd" clip-rule="evenodd" d="M6.2047 23.3793C8.01644 25.3822 11.005 26.7939 15.8076 27.6324L15.3633 30.1777C10.3199 29.2971 6.66198 27.7364 4.28855 25.1125C1.89532 22.4666 1.00028 18.9555 1 14.6232L3.58372 14.623C3.58398 18.6278 4.41277 21.3982 6.2047 23.3793Z" fill="url(#paint0_linear_5527_31402)"/>
<path fill-rule="evenodd" clip-rule="evenodd" d="M7.66031 22.6424C5.56172 21.2066 3.34494 19.69 2.13177 16.7998L4.51413 15.7998C5.42525 17.9704 7.04746 19.0853 9.27172 20.6139C9.35627 20.6721 9.44169 20.7308 9.52798 20.7902C11.8564 22.3927 14.5667 24.3624 16.6925 28.3235L14.4159 29.5453C12.5901 26.1433 10.3032 24.4602 8.06315 22.9185C7.92956 22.8266 7.79518 22.7346 7.66031 22.6424Z" fill="url(#paint1_linear_5527_31402)"/>
<path d="M29.0545 14.1787C28.9413 23.4951 25.7444 26.5826 15.5605 29.0479C14.2572 18.4638 21.6896 20.5183 29.0545 14.1787Z" fill="#0E7139"/>
<path fill-rule="evenodd" clip-rule="evenodd" d="M26.8205 25.1125C24.4471 27.7364 20.7891 29.2971 15.7458 30.1777L15.3014 27.6324C20.104 26.7939 23.0926 25.3822 24.9043 23.3792C26.6963 21.3982 27.525 18.6278 27.5253 14.623L30.109 14.6232C30.1087 18.9555 29.2137 22.4666 26.8205 25.1125Z" fill="url(#paint2_linear_5527_31402)"/>
<path fill-rule="evenodd" clip-rule="evenodd" d="M21.837 20.613C24.0612 19.0843 25.6834 17.9694 26.5946 15.7988L28.9769 16.7988C27.7637 19.689 25.547 21.2056 23.4484 22.6414C23.3135 22.7336 23.1791 22.8256 23.0455 22.9175C20.8055 24.4592 18.5186 26.1423 16.6928 29.5443L14.4162 28.3225C16.542 24.3614 19.2522 22.3917 21.5807 20.7892C21.667 20.7298 21.7524 20.6711 21.837 20.613Z" fill="url(#paint3_linear_5527_31402)"/>
<path d="M41.8116 22.0663C40.7591 22.0663 39.7916 21.8218 38.9092 21.3327C38.0374 20.8436 37.341 20.1632 36.82 19.2914C36.3097 18.409 36.0546 17.4202 36.0546 16.3252C36.0546 15.2301 36.3097 14.2467 36.82 13.3749C37.341 12.5031 38.0374 11.8226 38.9092 11.3336C39.7916 10.8445 40.7591 10.6 41.8116 10.6C42.8642 10.6 43.8263 10.8445 44.6981 11.3336C45.5806 11.8226 46.2716 12.5031 46.7713 13.3749C47.2816 14.2467 47.5368 15.2301 47.5368 16.3252C47.5368 17.4202 47.2816 18.409 46.7713 19.2914C46.261 20.1632 45.5699 20.8436 44.6981 21.3327C43.8263 21.8218 42.8642 22.0663 41.8116 22.0663ZM41.8116 19.5785C42.7047 19.5785 43.417 19.2808 43.9486 18.6854C44.4908 18.09 44.7619 17.3033 44.7619 16.3252C44.7619 15.3364 44.4908 14.5497 43.9486 13.9649C43.417 13.3696 42.7047 13.0719 41.8116 13.0719C40.9079 13.0719 40.185 13.3642 39.6428 13.949C39.1112 14.5337 38.8454 15.3258 38.8454 16.3252C38.8454 17.3139 39.1112 18.106 39.6428 18.7014C40.185 19.2861 40.9079 19.5785 41.8116 19.5785Z" fill="white"/>
<path d="M51.781 14.539C52.0999 14.05 52.4986 13.6672 52.977 13.3908C53.4555 13.1038 53.9871 12.9602 54.5718 12.9602V15.8467H53.8223C53.1418 15.8467 52.6315 15.9956 52.2913 16.2933C51.9511 16.5803 51.781 17.0907 51.781 17.8242V21.9547H49.0539V13.0559H51.781V14.539Z" fill="white"/>
<path d="M59.2561 12.9283C59.8834 12.9283 60.4309 13.0559 60.8987 13.3111C61.3772 13.5662 61.744 13.9011 61.9991 14.3158V13.0559H64.7262V21.9387C64.7262 22.7574 64.5614 23.4963 64.2318 24.1554C63.9128 24.8252 63.4185 25.3568 62.7487 25.7502C62.0895 26.1435 61.2655 26.3402 60.2768 26.3402C58.9585 26.3402 57.89 26.0266 57.0713 25.3993C56.2527 24.7827 55.7849 23.9428 55.6679 22.8796H58.3631C58.4481 23.2198 58.6501 23.4856 58.9691 23.677C59.288 23.879 59.6814 23.98 60.1492 23.98C60.7127 23.98 61.1592 23.8152 61.4888 23.4856C61.829 23.1667 61.9991 22.651 61.9991 21.9387V20.6789C61.7333 21.0935 61.3665 21.4337 60.8987 21.6995C60.4309 21.9547 59.8834 22.0822 59.2561 22.0822C58.5226 22.0822 57.8581 21.8962 57.2627 21.5241C56.6673 21.1413 56.1942 20.6044 55.8434 19.9134C55.5032 19.2117 55.333 18.4037 55.333 17.4893C55.333 16.575 55.5032 15.7723 55.8434 15.0813C56.1942 14.3902 56.6673 13.8586 57.2627 13.4865C57.8581 13.1144 58.5226 12.9283 59.2561 12.9283ZM61.9991 17.5053C61.9991 16.8249 61.8078 16.288 61.425 15.8946C61.0529 15.5012 60.5957 15.3045 60.0535 15.3045C59.5113 15.3045 59.0488 15.5012 58.6661 15.8946C58.294 16.2773 58.1079 16.8089 58.1079 17.4893C58.1079 18.1698 58.294 18.712 58.6661 19.116C59.0488 19.5094 59.5113 19.7061 60.0535 19.7061C60.5957 19.7061 61.0529 19.5094 61.425 19.116C61.8078 18.7226 61.9991 18.1857 61.9991 17.5053Z" fill="white"/>
<path d="M66.1568 17.4893C66.1568 16.575 66.3269 15.7723 66.6671 15.0813C67.018 14.3902 67.4911 13.8586 68.0865 13.4865C68.6819 13.1144 69.3463 12.9283 70.0799 12.9283C70.7072 12.9283 71.2547 13.0559 71.7225 13.3111C72.2009 13.5662 72.5677 13.9011 72.8229 14.3158V13.0559H75.5499V21.9547H72.8229V20.6948C72.5571 21.1094 72.185 21.4443 71.7066 21.6995C71.2388 21.9547 70.6912 22.0822 70.064 22.0822C69.341 22.0822 68.6819 21.8962 68.0865 21.5241C67.4911 21.1413 67.018 20.6044 66.6671 19.9134C66.3269 19.2117 66.1568 18.4037 66.1568 17.4893ZM72.8229 17.5053C72.8229 16.8249 72.6315 16.288 72.2488 15.8946C71.8767 15.5012 71.4195 15.3045 70.8773 15.3045C70.3351 15.3045 69.8726 15.5012 69.4899 15.8946C69.1178 16.2773 68.9317 16.8089 68.9317 17.4893C68.9317 18.1698 69.1178 18.712 69.4899 19.116C69.8726 19.5094 70.3351 19.7061 70.8773 19.7061C71.4195 19.7061 71.8767 19.5094 72.2488 19.116C72.6315 18.7226 72.8229 18.1857 72.8229 17.5053Z" fill="white"/>
<path d="M82.945 12.9602C83.9869 12.9602 84.8162 13.3005 85.4328 13.9809C86.0601 14.6507 86.3737 15.5756 86.3737 16.7558V21.9547H83.6626V17.1225C83.6626 16.5272 83.5085 16.0647 83.2002 15.7351C82.8918 15.4055 82.4772 15.2407 81.9562 15.2407C81.4353 15.2407 81.0207 15.4055 80.7123 15.7351C80.404 16.0647 80.2499 16.5272 80.2499 17.1225V21.9547H77.5228V13.0559H80.2499V14.236C80.5263 13.8427 80.8984 13.5343 81.3662 13.3111C81.834 13.0772 82.3602 12.9602 82.945 12.9602Z" fill="white"/>
<path d="M89.6402 12.131C89.1618 12.131 88.7684 11.9928 88.4601 11.7163C88.1624 11.4293 88.0136 11.0784 88.0136 10.6638C88.0136 10.2385 88.1624 9.88767 88.4601 9.61125C88.7684 9.32419 89.1618 9.18066 89.6402 9.18066C90.108 9.18066 90.4908 9.32419 90.7884 9.61125C91.0968 9.88767 91.2509 10.2385 91.2509 10.6638C91.2509 11.0784 91.0968 11.4293 90.7884 11.7163C90.4908 11.9928 90.108 12.131 89.6402 12.131ZM90.9958 13.0559V21.9547H88.2687V13.0559H90.9958Z" fill="white"/>
<path d="M92.4298 17.5053C92.4298 16.5803 92.6159 15.7723 92.988 15.0813C93.3707 14.3902 93.897 13.8586 94.5668 13.4865C95.2472 13.1144 96.0233 12.9283 96.8951 12.9283C98.0114 12.9283 98.9417 13.2207 99.6859 13.8055C100.441 14.3902 100.935 15.2142 101.169 16.2773H98.2666C98.0221 15.5969 97.549 15.2567 96.8473 15.2567C96.3476 15.2567 95.9489 15.4534 95.6512 15.8467C95.3535 16.2295 95.2047 16.7823 95.2047 17.5053C95.2047 18.2282 95.3535 18.7864 95.6512 19.1798C95.9489 19.5625 96.3476 19.7539 96.8473 19.7539C97.549 19.7539 98.0221 19.4137 98.2666 18.7333H101.169C100.935 19.7752 100.441 20.5938 99.6859 21.1892C98.9311 21.7846 98.0008 22.0822 96.8951 22.0822C96.0233 22.0822 95.2472 21.8962 94.5668 21.5241C93.897 21.152 93.3707 20.6204 92.988 19.9293C92.6159 19.2383 92.4298 18.4302 92.4298 17.5053Z" fill="white"/>
<path d="M111.606 21.9547H110.155L104.318 13.1038V21.9547H102.867V10.8233H104.318L110.155 19.6582V10.8233H111.606V21.9547Z" fill="white"/>
<path d="M122.054 17.2501C122.054 17.5266 122.038 17.8189 122.006 18.1272H115.021C115.074 18.9884 115.367 19.6635 115.898 20.1526C116.44 20.631 117.094 20.8702 117.86 20.8702C118.487 20.8702 119.008 20.7267 119.423 20.4396C119.848 20.142 120.145 19.7486 120.316 19.2595H121.878C121.645 20.0994 121.177 20.7852 120.475 21.3168C119.773 21.8377 118.902 22.0982 117.86 22.0982C117.03 22.0982 116.286 21.9121 115.627 21.54C114.978 21.1679 114.468 20.6416 114.096 19.9612C113.724 19.2702 113.538 18.4728 113.538 17.5691C113.538 16.6654 113.719 15.8733 114.08 15.1929C114.442 14.5125 114.947 13.9915 115.595 13.63C116.254 13.2579 117.009 13.0719 117.86 13.0719C118.689 13.0719 119.423 13.2526 120.06 13.6141C120.698 13.9756 121.187 14.4753 121.528 15.1132C121.878 15.7404 122.054 16.4528 122.054 17.2501ZM120.555 16.9471C120.555 16.3943 120.433 15.9212 120.188 15.5278C119.943 15.1238 119.609 14.8208 119.183 14.6188C118.769 14.4061 118.306 14.2998 117.796 14.2998C117.062 14.2998 116.435 14.5337 115.914 15.0015C115.404 15.4693 115.111 16.1179 115.037 16.9471H120.555Z" fill="white"/>
<path d="M123.427 17.5531C123.427 16.6601 123.608 15.8786 123.969 15.2088C124.331 14.5284 124.825 14.0021 125.453 13.63C126.09 13.2579 126.797 13.0719 127.574 13.0719C128.339 13.0719 129.004 13.2367 129.567 13.5662C130.131 13.8958 130.55 14.3105 130.827 14.8102V13.2154H132.294V21.9547H130.827V20.328C130.54 20.8383 130.109 21.2636 129.535 21.6038C128.972 21.9334 128.313 22.0982 127.558 22.0982C126.782 22.0982 126.08 21.9068 125.453 21.5241C124.825 21.1413 124.331 20.6044 123.969 19.9134C123.608 19.2223 123.427 18.4356 123.427 17.5531ZM130.827 17.5691C130.827 16.9099 130.694 16.3358 130.428 15.8467C130.162 15.3577 129.801 14.9856 129.344 14.7304C128.897 14.4646 128.403 14.3317 127.861 14.3317C127.318 14.3317 126.824 14.4593 126.378 14.7145C125.931 14.9696 125.575 15.3417 125.309 15.8308C125.043 16.3199 124.91 16.894 124.91 17.5531C124.91 18.2229 125.043 18.8077 125.309 19.3074C125.575 19.7964 125.931 20.1738 126.378 20.4396C126.824 20.6948 127.318 20.8224 127.861 20.8224C128.403 20.8224 128.897 20.6948 129.344 20.4396C129.801 20.1738 130.162 19.7964 130.428 19.3074C130.694 18.8077 130.827 18.2282 130.827 17.5691Z" fill="white"/>
<path d="M136.198 14.6347C136.453 14.135 136.814 13.747 137.282 13.4706C137.761 13.1941 138.34 13.0559 139.02 13.0559V14.555H138.638C137.011 14.555 136.198 15.4374 136.198 17.2023V21.9547H134.747V13.2154H136.198V14.6347Z" fill="white"/>
<path d="M142.147 14.842C142.445 14.3211 142.881 13.8958 143.455 13.5662C144.029 13.2367 144.683 13.0719 145.416 13.0719C146.203 13.0719 146.91 13.2579 147.537 13.63C148.164 14.0021 148.659 14.5284 149.02 15.2088C149.382 15.8786 149.563 16.6601 149.563 17.5531C149.563 18.4356 149.382 19.2223 149.02 19.9134C148.659 20.6044 148.159 21.1413 147.521 21.5241C146.894 21.9068 146.192 22.0982 145.416 22.0982C144.661 22.0982 143.997 21.9334 143.423 21.6038C142.859 21.2742 142.434 20.8543 142.147 20.344V21.9547H140.696V10.1535H142.147V14.842ZM148.079 17.5531C148.079 16.894 147.947 16.3199 147.681 15.8308C147.415 15.3417 147.053 14.9696 146.596 14.7145C146.15 14.4593 145.655 14.3317 145.113 14.3317C144.582 14.3317 144.087 14.4646 143.63 14.7304C143.184 14.9856 142.822 15.363 142.546 15.8627C142.28 16.3517 142.147 16.9205 142.147 17.5691C142.147 18.2282 142.28 18.8077 142.546 19.3074C142.822 19.7964 143.184 20.1738 143.63 20.4396C144.087 20.6948 144.582 20.8224 145.113 20.8224C145.655 20.8224 146.15 20.6948 146.596 20.4396C147.053 20.1738 147.415 19.7964 147.681 19.3074C147.947 18.8077 148.079 18.2229 148.079 17.5531Z" fill="white"/>
<path d="M159 13.2154L153.737 26.0691H152.238L153.961 21.859L150.436 13.2154H152.047L154.79 20.2961L157.501 13.2154H159Z" fill="white"/>
<defs>
<linearGradient id="paint0_linear_5527_31402" x1="2.29179" y1="13.692" x2="5.32875" y2="23.6622" gradientUnits="userSpaceOnUse">
<stop stop-color="#1D8640" stop-opacity="0"/>
<stop offset="1" stop-color="#1D8640"/>
</linearGradient>
<linearGradient id="paint1_linear_5527_31402" x1="12.5767" y1="26.0694" x2="3.87884" y2="16.2136" gradientUnits="userSpaceOnUse">
<stop stop-color="#1D8640"/>
<stop offset="1" stop-color="#1D8640" stop-opacity="0"/>
</linearGradient>
<linearGradient id="paint2_linear_5527_31402" x1="28.8172" y1="13.692" x2="25.7803" y2="23.6622" gradientUnits="userSpaceOnUse">
<stop stop-color="#1D8640" stop-opacity="0"/>
<stop offset="1" stop-color="#1D8640"/>
</linearGradient>
<linearGradient id="paint3_linear_5527_31402" x1="18.532" y1="26.0684" x2="27.2298" y2="16.2126" gradientUnits="userSpaceOnUse">
<stop stop-color="#1D8640"/>
<stop offset="1" stop-color="#1D8640" stop-opacity="0"/>
</linearGradient>
</defs>
</svg>
