<svg xmlns="http://www.w3.org/2000/svg" xmlns:xlink="http://www.w3.org/1999/xlink" version="1.2" viewBox="0 0 56 58" baseProfile="tiny-ps">  <title>Group 416</title>  <ellipse cx="28.13" cy="33.033" rx="24.295" ry="23.789" fill="#FFDF88"/>  <circle cx="28.129" cy="35.564" r="21.258" fill="#FEBE0F"/>  <path d="M36.771,28.643c3.359-5.085,6.415-9.713,6.415-13.459  c0-8.315-6.741-15.056-15.056-15.056c-8.315,0-15.056,6.741-15.056,15.056c0,3.944,3.387,9.348,6.948,15.03  c3.947,6.298,8.108,12.938,8.108,18.309C28.129,41.728,32.675,34.845,36.771,28.643z M28.129,21.099  c3.267,0,5.915-2.648,5.915-5.915c0-3.267-2.648-5.915-5.915-5.915s-5.915,2.648-5.915,5.915  C22.215,18.451,24.863,21.099,28.129,21.099z" fill="#D3212D" fill-rule="evenodd"/>  <path d="M0.462,27.138c0.232,19.094,6.784,25.421,27.655,30.474C30.789,35.92,15.556,40.131,0.462,27.138z" fill="#0E7139"/>  <linearGradient id="SVGID_1_" gradientUnits="userSpaceOnUse" x1="7.7743" y1="35.9395" x2="13.9984" y2="15.506">    <stop offset="0" stop-opacity="0" stop-color="#1D8640"/>    <stop offset="1" stop-color="#1D8640"/>  </linearGradient>  <path d="M28.193,57.318C8.014,53.795,0.949,45.135,0.948,28.048" stroke-width="0.8" stroke="url(#SVGID_1_)" fill="none"/>  <linearGradient id="SVGID_00000011031060698093806480000017439837739941688453_" gradientUnits="userSpaceOnUse" x1="21.9427" y1="8.4194" x2="4.1167" y2="28.6185">    <stop offset="0" stop-color="#1D8640"/>    <stop offset="1" stop-opacity="0" stop-color="#1D8640"/>  </linearGradient>  <path d="  M3.062,31.483C7.647,42.405,20.031,42.287,28.13,57.377" stroke-width="0.8" stroke="url(#SVGID_00000011031060698093806480000017439837739941688453_)" fill="none"/>  <path d="M55.797,27.138c-0.232,19.094-6.784,25.421-27.656,30.474C25.471,35.92,40.703,40.131,55.797,27.138z  " fill="#0E7139"/>  <linearGradient id="SVGID_00000093147483983640227910000014404086994785697705_" gradientUnits="userSpaceOnUse" x1="48.485" y1="35.9395" x2="42.2609" y2="15.506">    <stop offset="0" stop-opacity="0" stop-color="#1D8640"/>    <stop offset="1" stop-color="#1D8640"/>  </linearGradient>  <path d="  M28.066,57.318c20.179-3.523,27.244-12.184,27.245-29.27" stroke-width="0.8" stroke="url(#SVGID_00000093147483983640227910000014404086994785697705_)" fill="none"/>  <linearGradient id="SVGID_00000008830102460151593720000013679798348106306470_" gradientUnits="userSpaceOnUse" x1="34.3166" y1="8.4194" x2="52.1426" y2="28.6185">    <stop offset="0" stop-color="#1D8640"/>    <stop offset="1" stop-opacity="0" stop-color="#1D8640"/>  </linearGradient>  <path d="  M53.197,31.483c-4.584,10.922-16.969,10.804-25.068,25.894" stroke-width="0.8" stroke="url(#SVGID_00000008830102460151593720000013679798348106306470_)" fill="none"/></svg>